<svg width="18" height="14" viewBox="0 0 18 14" fill="none" xmlns="http://www.w3.org/2000/svg">
<path d="M17.3906 6.58571C17.3906 6.30971 17.2856 6.05071 17.0846 5.84871L11.6606 0.42571C11.5753 0.340322 11.474 0.272587 11.3624 0.226373C11.2509 0.180159 11.1313 0.156372 11.0106 0.156372C10.8899 0.156372 10.7704 0.180159 10.6588 0.226373C10.5473 0.272587 10.446 0.340322 10.3606 0.42571L10.0366 0.75071C9.95124 0.836053 9.8835 0.937384 9.83729 1.04891C9.79107 1.16044 9.76729 1.27999 9.76729 1.40071C9.76729 1.52144 9.79107 1.64098 9.83729 1.75251C9.8835 1.86404 9.95124 1.96537 10.0366 2.05071L13.4306 5.44571H1.31063C1.18986 5.44558 1.07025 5.46925 0.958632 5.51538C0.847018 5.5615 0.74559 5.62918 0.660147 5.71453C0.574704 5.79988 0.506922 5.90123 0.460675 6.01279C0.414429 6.12436 0.390625 6.24394 0.390625 6.36471V6.82471C0.390625 7.33171 0.801625 7.74271 1.31063 7.74271H13.4306L10.0366 11.1367C9.95124 11.2221 9.8835 11.3234 9.83729 11.4349C9.79107 11.5464 9.76729 11.666 9.76729 11.7867C9.76729 11.9074 9.79107 12.027 9.83729 12.1385C9.8835 12.25 9.95124 12.3514 10.0366 12.4367L10.3616 12.7617C10.7206 13.1207 11.3016 13.1207 11.6616 12.7617L17.0846 7.33971C17.2886 7.13471 17.3906 6.86271 17.3906 6.58571V6.58571Z" fill="#0B6EF9"/>
</svg>
